<svg xmlns="http://www.w3.org/2000/svg" viewBox="0 0 31 27" width="31" height="27">
	<style>
		tspan { white-space:pre }
		.shp0 { fill: #a8a8a8 } 
	</style>
	<path id="Shape 2" class="shp0" d="M28.89 24.05C28.2 25.05 26.83 25.3 25.83 24.61L16.79 18.35C16.15 17.91 15.82 17.19 15.84 16.46C14.68 17.71 13.15 18.55 11.43 18.86C9.33 19.25 7.2 18.79 5.45 17.58C3.69 16.36 2.52 14.53 2.13 12.43C1.75 10.33 2.21 8.2 3.42 6.44C5.93 2.82 10.93 1.91 14.55 4.42C17.85 6.7 18.9 11.02 17.19 14.51C17.86 14.23 18.65 14.29 19.29 14.73L28.34 20.99C29.34 21.68 29.59 23.05 28.89 24.05ZM15.49 10C15.22 8.53 14.4 7.26 13.18 6.41C10.65 4.66 7.16 5.29 5.41 7.82C3.66 10.35 4.3 13.83 6.82 15.58C9.35 17.33 12.84 16.7 14.59 14.17C15.44 12.95 15.76 11.46 15.49 10Z" />
</svg>